<svg xmlns="http://www.w3.org/2000/svg" viewBox="0 0 1024 1024" role="img" aria-label="Finansowa Forteca">
	<defs>
		<linearGradient id="tile" x1="130" x2="894" y1="88" y2="936" gradientUnits="userSpaceOnUse">
			<stop stop-color="#fb7185" />
			<stop offset="0.56" stop-color="#be123c" />
			<stop offset="1" stop-color="#831843" />
		</linearGradient>
		<linearGradient id="panel" x1="236" x2="788" y1="238" y2="812" gradientUnits="userSpaceOnUse">
			<stop stop-color="#fff7f9" />
			<stop offset="1" stop-color="#ffe4e6" />
		</linearGradient>
		<linearGradient id="coin" x1="552" x2="792" y1="210" y2="456" gradientUnits="userSpaceOnUse">
			<stop stop-color="#fde68a" />
			<stop offset="1" stop-color="#f59e0b" />
		</linearGradient>
		<filter id="shadow" x="-20%" y="-20%" width="140%" height="150%" color-interpolation-filters="sRGB">
			<feDropShadow dx="0" dy="28" stdDeviation="30" flood-color="#4c0519" flood-opacity="0.24" />
		</filter>
	</defs>
	<rect width="1024" height="1024" fill="#fff1f2" />
	<rect x="86" y="86" width="852" height="852" rx="196" fill="url(#tile)" />
	<path
		d="M142 492c41-160 182-286 355-307 193-23 374 78 455 244-64-35-138-55-217-55-242 0-441 188-458 427-86-58-142-158-142-272 0-13 2-25 7-37Z"
		fill="#fff1f2"
		opacity="0.14"
	/>
	<g filter="url(#shadow)">
		<path
			d="M252 304c0-41 33-74 74-74h372c41 0 74 33 74 74v416c0 41-33 74-74 74H326c-41 0-74-33-74-74V304Z"
			fill="url(#panel)"
		/>
		<path
			d="M334 412h144m-144 94h116m-116 94h72"
			fill="none"
			stroke="#be123c"
			stroke-linecap="round"
			stroke-width="30"
			opacity="0.32"
		/>
		<path
			d="M355 671h63v49h-63v-49Zm101-92h63v141h-63V579Zm101-67h63v208h-63V512Zm101-128h63v336h-63V384Z"
			fill="#be123c"
		/>
		<path
			d="M343 614c68-6 129-37 181-93 41 28 83 42 126 41 38-1 73-16 106-45"
			fill="none"
			stroke="#0f766e"
			stroke-linecap="round"
			stroke-linejoin="round"
			stroke-width="36"
		/>
		<path
			d="M704 477l54 40-40 54"
			fill="none"
			stroke="#0f766e"
			stroke-linecap="round"
			stroke-linejoin="round"
			stroke-width="36"
		/>
		<circle cx="686" cy="318" r="112" fill="url(#coin)" />
		<circle cx="686" cy="318" r="68" fill="none" stroke="#fff7ed" stroke-width="24" opacity="0.8" />
		<path
			d="M648 319h76m-38-37v74"
			fill="none"
			stroke="#92400e"
			stroke-linecap="round"
			stroke-width="26"
		/>
	</g>
</svg>
